<?xml version="1.0" ?><svg style="enable-background:new 0 0 256 256;" version="1.1" viewBox="0 0 256 256" xml:space="preserve" xmlns="http://www.w3.org/2000/svg" xmlns:xlink="http://www.w3.org/1999/xlink"><style type="text/css">
	.st0{fill:#D5E2EB;}
	.st1{fill:none;stroke:#00A388;stroke-width:4;stroke-miterlimit:10;}
	.st2{fill:#FFFFFF;}
	.st3{fill:#CC4E47;}
	.st4{fill:#EA685E;}
	.st5{fill:#4B687F;}
	.st6{fill:#2C3E50;}
	.st7{fill:#3E5063;}
	.st8{fill:#FFAB80;}
	.st9{filter:url(#Adobe_OpacityMaskFilter);}
	.st10{mask:url(#SVGID_2_);}
	.st11{fill:#F09A79;}
	.st12{fill:#00886F;}
	.st13{fill:#00A388;}
	.st14{fill:none;stroke:#3E5063;stroke-width:4;stroke-miterlimit:10;}
	.st15{fill:#FFD766;}
	.st16{fill:#5488B7;}
	.st17{fill:#8C623B;}
	.st18{fill:#E6E6E6;stroke:#3E5063;stroke-width:16;stroke-miterlimit:10;}
	.st19{opacity:0.6;}
	.st20{fill:#E6E6E6;}
	.st21{fill:none;stroke:#D5E2EB;stroke-width:5;stroke-miterlimit:10;}
	.st22{fill:#FFEC9F;}
	.st23{fill:#603813;}
	.st24{filter:url(#Adobe_OpacityMaskFilter_1_);}
	.st25{mask:url(#SVGID_1_);}
</style><g id="Layer_2"><circle class="st0" cx="128" cy="128" r="120"/><circle class="st0" cx="128" cy="128" r="120"/></g><g id="Layer_1"><g><g><path class="st3" d="M203,106.1973c-0.01001,3.82996-0.01001,8.51996-0.01001,11.10999c0,0.87-0.21997,1.77997-0.94,2.47998     l-33.07001,32.22998l-0.48999,0.48004c-0.73999,0.71997-1.08002,1.76001-0.89996,2.77997l5.66998,21.69l2.25,13.14001     c0.01001,0.07001,0.02002,0.13,0.02997,0.20001v0.67999c0,0.01001,0,0.01001,0,0.02002l-0.02997,10.45996     c0,2.70001-2.26001,4.53003-4.57001,3.32001l-41.47998-21.81c-0.91003-0.47998-2.01001-0.47998-2.92004,0l-41.47998,21.81     c-2.31,1.21002-4.57001-0.82001-4.57001-3.32001l-0.02997-10.45996c0-0.01001,0-0.01001,0-0.02002v-0.67999     c0.00995-0.07001,0.01996-0.13,0.02997-0.20001l2.25-13.12l5.66998-21.71002c0.18005-1.01996-0.15997-2.06-0.89996-2.77997     l-0.48999-0.48004l-33.07001-32.22998C53.25,119.10727,53,118.23727,53,117.3873v-11.19     c0-1.47003,1.02002-2.89001,2.70001-3.14001l5.51001-0.79999l40.85999,5.41998c1.02002-0.15002,1.90997-0.78998,2.37-1.72003     l20.73999-42.01995c1.15002-2.34003,4.48999-2.34003,5.64001,0L151.56,105.95724c0.46002,0.93005,1.34998,1.57001,2.37,1.72003     l41.22003-5.37l5.14996,0.75C201.97998,103.30728,203,104.72726,203,106.1973z"/></g><g><path class="st4" d="M168.48999,141.1373c-0.73999,0.71997-1.08002,1.76996-0.89996,2.78998l1.38995,8.08997l4.28003,24.95001     l2.25,13.14001c0.01001,0.07001,0.02002,0.13,0.02997,0.20001c0.02002,0.22998,0.02002,0.45996,0,0.67999     c0,0.01001,0,0.01001,0,0.02002c-0.23999,2.09998-2.57001,3.47998-4.59998,2.41998l-41.47998-21.81     c-0.91003-0.47998-2.01001-0.47998-2.92004,0l-41.47998,21.81c-2.02997,1.06-4.35999-0.32001-4.59998-2.41998     c0-0.01001,0-0.01001,0-0.02002v-0.67999c0.00995-0.07001,0.01996-0.13,0.02997-0.20001l2.25-13.12l4.28003-24.97003     l1.38995-8.08997c0.18005-1.02002-0.15997-2.07001-0.89996-2.78998l-33.56-32.71002C53.29999,107.78726,53,106.98727,53,106.1973     c0-1.47003,1.02002-2.89001,2.70001-3.14001l5.51001-0.79999l40.85999-5.93005c1.02002-0.14996,1.90997-0.79999,2.37-1.72998     l20.73999-42.01001c1.15002-2.33997,4.48999-2.33997,5.64001,0L151.56,94.59726c0.46002,0.92999,1.34998,1.58002,2.37,1.72998     l41.22003,5.98004l5.14996,0.75c1.67999,0.25,2.70001,1.66998,2.70001,3.14001c0,0.78998-0.29999,1.58997-0.95001,2.22998     L168.48999,141.1373z"/></g></g></g></svg>